<?xml version="1.0" standalone="no"?><!DOCTYPE svg PUBLIC "-//W3C//DTD SVG 1.1//EN" "http://www.w3.org/Graphics/SVG/1.1/DTD/svg11.dtd"><svg t="1653120288762" class="icon" viewBox="0 0 1024 1024" version="1.1" xmlns="http://www.w3.org/2000/svg" p-id="1584" xmlns:xlink="http://www.w3.org/1999/xlink" width="200" height="200"><defs><style type="text/css">@font-face { font-family: feedback-iconfont; src: url("//at.alicdn.com/t/font_1031158_u69w8yhxdu.woff2?t=1630033759944") format("woff2"), url("//at.alicdn.com/t/font_1031158_u69w8yhxdu.woff?t=1630033759944") format("woff"), url("//at.alicdn.com/t/font_1031158_u69w8yhxdu.ttf?t=1630033759944") format("truetype"); }
</style></defs><path d="M931.52 423.36C882.88 344 627.52 44.48 523.52 4.48L512 0l-11.52 4.48C396.48 44.48 141.12 344 92.48 423.36 36.8 514.24-11.52 700.48 96 812.8a266.24 266.24 0 0 0 384 0l30.08-32 30.08 32a266.24 266.24 0 0 0 384 0c111.36-112.32 63.04-298.56 7.36-389.44zM880.96 768a202.24 202.24 0 0 1-292.8 0L512 689.6 435.84 768a202.24 202.24 0 0 1-292.8 0c-79.04-81.28-45.12-231.04 4.16-311.36C199.36 371.2 423.36 118.4 512 69.44c88.64 48.96 312.64 301.76 364.8 387.2 49.28 80.32 83.2 230.08 4.16 311.36z" p-id="1585"></path><path d="M352 1024h320l-160-159.68L352 1024z" p-id="1586"></path></svg>