<?xml version="1.0" standalone="no"?><!DOCTYPE svg PUBLIC "-//W3C//DTD SVG 1.1//EN" "http://www.w3.org/Graphics/SVG/1.1/DTD/svg11.dtd"><svg t="1653134926447" class="icon" viewBox="0 0 1024 1024" version="1.1" xmlns="http://www.w3.org/2000/svg" p-id="6915" xmlns:xlink="http://www.w3.org/1999/xlink" width="200" height="200"><defs><style type="text/css">@font-face { font-family: feedback-iconfont; src: url("//at.alicdn.com/t/font_1031158_u69w8yhxdu.woff2?t=1630033759944") format("woff2"), url("//at.alicdn.com/t/font_1031158_u69w8yhxdu.woff?t=1630033759944") format("woff"), url("//at.alicdn.com/t/font_1031158_u69w8yhxdu.ttf?t=1630033759944") format("truetype"); }
</style></defs><path d="M218.201 0C185.63 0 159.43 26.29 159.43 58.951v763.757c0 32.571 26.2 58.771 58.771 58.771h470.08c32.48 0 58.771-26.2 58.771-58.771V58.951C747.051 26.29 720.761 0 688.28 0H218.201z m558.191 169.943v509.561l213.013-213.013c23.06-23.06 23.06-60.566 0-83.625L776.392 169.943z m-323.106 94.573c0 58.771 117.452 54.733 117.452 139.525 0 91.342-110.632 72.23-117.452 33.02-6.999 39.211-117.632 58.323-117.632-33.02-0.001-84.792 117.632-80.754 117.632-139.525m0 176.224l58.682 117.542H394.515l58.771-117.542z m-323.287 54.284l-95.47 95.47c-22.97 23.06-22.97 60.477 0 83.446l95.47 95.47V495.024z m141.41 415.796l95.559 95.47c22.97 23.06 59.668 23.06 82.639 0l95.468-95.47H271.409z" fill="#040000" p-id="6916"></path></svg>